# xmcd CD database file
#
# Track frame offsets:
#	187
#	20737
#	42562
#	63075
#
# Disc length: 1127 seconds
#
# Revision: 0
# Processed by: cddbd v1.5.1PL0 Copyright (c) Steve Scherf et al.
# Submitted via: CDex 1.51
#
DISCID=30046504
DTITLE=久宝留理子 - 雨やどり
DYEAR=1998
DGENRE=J-Pop
TTITLE0=雨やどり
TTITLE1=プロポーズ (お嫁さんになってあげる)
TTITLE2=雨やどり (original karaoke)
TTITLE3=プロポーズ (original karaoke)
EXTD=YEAR: 1998
EXTT0=
EXTT1=
EXTT2=
EXTT3=
PLAYORDER=
